<?xml version="1.0" encoding="utf-8"?>
<!-- Generator: Adobe Illustrator 27.0.0, SVG Export Plug-In . SVG Version: 6.00 Build 0)  -->
<svg version="1.1" id="Layer_1" xmlns="http://www.w3.org/2000/svg" xmlns:xlink="http://www.w3.org/1999/xlink" x="0px" y="0px"
	 viewBox="0 0 1858.1 722.8" style="enable-background:new 0 0 1858.1 722.8;" xml:space="preserve">
<style type="text/css">
	.st0{fill:#B0AFFF;}
	.st1{fill:none;}
</style>
<g>
	<path class="st0" d="M1013.1,391h-293c-20.2,0-36.6-16.4-36.6-36.6v-55.3c0-14.9,12.1-26.9,27-26.9h293c20.2,0,36.6,16.4,36.6,36.6
		V364C1040,378.9,1027.9,391,1013.1,391z M710.4,295.8c-1.8,0-3.3,1.5-3.3,3.3v55.3c0,7.2,5.8,13,13,13h293c1.8,0,3.3-1.6,3.3-3.4
		v-55.2c0-7.2-5.8-13-13-13H710.4z"/>
</g>
<g>
	<path class="st0" d="M491.5,650.2c-0.1,0-0.1,0-0.2,0c-9-0.1-16.8-5.6-19.9-14l-97.3-259.8l-95.8,259c-3.1,8.4-11,14-20,14
		c-0.1,0-0.1,0-0.2,0c-8.9,0-16.8-5.4-20-13.7L1.5,29.3c-2.6-6.6-1.7-14.1,2.3-20C7.8,3.5,14.4,0,21.5,0c0,0,0,0,0,0l121.1,0.2
		c5.4,0,10.1,3.2,12.1,8.2l104.5,269l96.5-245.1c3.3-8.3,11.1-13.6,20-13.6c0,0,0,0,0,0c8.9,0,16.7,5.4,20,13.6l96.2,245.5
		l105-268.3c2-5.1,7-8.5,12.5-8.5l121.3,0.2c7.1,0,13.7,3.5,17.7,9.4c4,5.9,4.8,13.3,2.2,20L511.5,636.6
		C508.2,644.9,500.4,650.2,491.5,650.2z M374.1,348.8c9.1,0,16.9,5.5,20.1,14l97.3,259.9L727.5,25l-111.1-0.2L512,291.7
		c-3.2,8.3-11.1,13.7-20,13.7c0,0,0,0,0,0c-8.9,0-16.8-5.4-20-13.6L375.7,46.2l-96.5,245.1c-3.3,8.3-11.1,13.6-20,13.6
		c-8.9,0-16.8-5.4-20-13.7L135.3,23.9L24.6,23.7l233.5,598.3L354,362.8C357.1,354.3,365,348.8,374.1,348.8
		C374.1,348.8,374.1,348.8,374.1,348.8z M493.9,283.1L493.9,283.1C493.9,283.1,493.9,283.1,493.9,283.1z M142.6,23.9
		C142.6,23.9,142.6,23.9,142.6,23.9L142.6,23.9z"/>
</g>
<g>
	<path class="st0" d="M954.1,667.4c-0.3,0-0.6,0-0.8,0l-161.5-0.3c-5.7,0-11.1-2.3-15.2-6.3c-4.1-4.1-6.3-9.5-6.3-15.2l0.4-210.4
		c0-5.7,2.3-11.1,6.3-15.2s9.5-6.3,15.2-6.3l109.5,0.2c11.8,0,21.5,9.7,21.4,21.5l-0.1,79.4l31.3,0.1c0.2,0,0.3,0,0.5,0
		c53.4,0,98.4-17,130.4-49.2c32-32.3,49-77.8,49.1-131.7c0.1-53.4-16.9-98.8-49.2-131.4c-32.4-32.7-77.8-50.1-131.3-50.2l-30.1-0.1
		l-0.1,80.5l-16.7,16.6l-123.8-0.2c-6.6,0-12-5.4-12-12l0.4-214.8C771.5,10.6,781.2,1,793,1c0,0,0,0,0,0l149.6,0.3V0.8l11.8,0
		c49.5,0.1,96.4,9.5,139.4,28.1c38.7,16.7,73.6,40.3,103.7,70.4l0.1,0.1c59.4,59.9,89.3,139.3,89.1,236
		c-0.2,96.7-30.5,175.8-90.1,234.9C1131.4,634.8,1049.8,667.4,954.1,667.4z M794,643.5l159.3,0.3c0.3,0,0.5,0,0.8,0
		c44.6,0,86.2-7.6,123.6-22.5c37.5-15,72-37.8,102.4-67.9c27.4-27.2,48.3-59.3,62-95.3c13.9-36.2,20.9-77.6,21-122.9
		c0.1-45.3-6.8-86.8-20.5-123.2c-13.6-36.2-34.4-68.5-61.7-96.1c-40.3-40.1-109.8-87.7-214.6-91.3v0.2l-171.1-0.3l-0.4,201.1
		l102.4,0.2l2.8-2.8l0.1-72.8c0-11.8,9.7-21.5,21.5-21.5c0,0,0,0,0,0l32.3,0.1c59.9,0.1,111.1,19.9,148,57.2
		c36.8,37.1,56.1,88.3,56,148.1c-0.1,60.2-19.5,111.5-55.9,148.3c-36.5,36.8-87.4,56.2-147.2,56.2c-0.2,0-0.3,0-0.5,0l-33.4-0.1
		c-5.7,0-11.1-2.3-15.2-6.3c-4.1-4.1-6.3-9.5-6.3-15.2l0.1-79.4l-105.2-0.2L794,643.5z M783.2,225.7L783.2,225.7
		C783.2,225.7,783.2,225.7,783.2,225.7z"/>
</g>
<path class="st1" d="M1464.4,147.4c0-5.7,2.3-11.1,6.3-15.2c4.1-4,9.4-6.3,15.2-6.3c0,0,0,0,0,0l46.4,0.1c19,0,36.9,7.1,50.5,19.8
	c13.5,12.7,21.2,30,21.2,47.6c0,36.7-30.9,66.4-73.4,70.7l-0.4,0c-17.4,1.2-32,2.1-43.5,2.6c-0.4,0-0.7,0-1.1,0
	c-5.5,0-10.8-2.1-14.8-5.9c-4.2-4-6.7-9.7-6.7-15.6L1464.4,147.4z M1660.8,517.1c-18.5,15.6-42.6,24.2-67.9,24.2c-0.1,0-0.2,0-0.3,0
	l-89-0.2l-18.6,0c-5.7,0-11.1-2.3-15.2-6.3s-6.3-9.5-6.3-15.2l0.3-136.7c0-11.8,9.6-21.4,21.4-21.4c9.9,0,19.7-0.1,29.1-0.3
	c27.9-0.3,54.3-0.6,83.7,0.9l0.1,0c24.9,1.5,48.3,11.7,65.9,28.5c18.5,17.7,28.3,40.7,27.6,64.9v0C1691,479,1680,500.9,1660.8,517.1
	z"/>
<path class="st1" d="M1596.9,385.7c-28.7-1.5-54.7-1.2-82.2-0.9c-8.8,0.1-17.9,0.2-27.2,0.2l-0.3,132.4l16.4,0l89,0.2
	c0.1,0,0.1,0,0.2,0c40.4,0,74.1-28.2,75.2-62.9C1669.2,419.2,1637.3,388.2,1596.9,385.7z"/>
<path class="st1" d="M1580.4,193.5c0-11.2-4.9-22-13.7-30.3c-9.2-8.6-21.4-13.4-34.4-13.4h0l-44.2-0.1l-0.2,93.5
	c10.9-0.6,24.6-1.4,40.6-2.5C1562.5,237.2,1580.3,214.3,1580.4,193.5z"/>
<path class="st0" d="M1691.8,455.5c0.7-24.1-9.1-47.2-27.6-64.9c-17.6-16.8-41-27-65.9-28.5l-0.1,0c-29.4-1.5-55.8-1.2-83.7-0.9
	c-9.4,0.1-19.2,0.2-29.1,0.3c-11.8,0-21.4,9.7-21.4,21.4l-0.3,136.7c0,5.7,2.2,11.1,6.3,15.2s9.4,6.3,15.2,6.3l18.6,0l89,0.2
	c0.1,0,0.2,0,0.3,0c25.2,0,49.3-8.6,67.9-24.2C1680,500.9,1691,479,1691.8,455.5L1691.8,455.5z M1668.1,454.7
	c-1.1,34.7-34.8,62.9-75.2,62.9c-0.1,0-0.1,0-0.2,0l-89-0.2l-16.4,0l0.3-132.4c9.3,0,18.4-0.1,27.2-0.2c27.5-0.3,53.5-0.6,82.2,0.9
	C1637.3,388.2,1669.2,419.2,1668.1,454.7z"/>
<path class="st0" d="M1485.7,266.9c0.4,0,0.7,0,1.1,0c11.5-0.6,26.1-1.5,43.5-2.6l0.4,0c42.5-4.3,73.4-34,73.4-70.7
	c0-17.6-7.7-34.9-21.2-47.6c-13.6-12.8-31.5-19.8-50.5-19.8l-46.4-0.1c0,0,0,0,0,0c-5.7,0-11.1,2.2-15.2,6.3
	c-4.1,4.1-6.3,9.4-6.3,15.2l-0.2,97.9c0,5.9,2.4,11.6,6.7,15.6C1474.8,264.8,1480.2,266.9,1485.7,266.9z M1488,149.6l44.2,0.1h0
	c13,0,25.2,4.8,34.4,13.4c8.9,8.3,13.8,19.1,13.7,30.3c0,20.8-17.9,43.7-51.9,47.2c-16,1.1-29.7,1.9-40.6,2.5L1488,149.6z"/>
<path class="st0" d="M1678.3,629.8c-24.6,9.3-51.7,14-80.6,14c-0.2,0-0.4,0-0.6,0l-246.7-0.5c-1.9,0-3.6-0.7-4.8-1.8
	c-0.5-0.5-1.1-1.3-1.1-2.4l1.1-611.9c0-0.7,0.3-1.4,0.9-2c1-1,2.6-1.6,4.3-1.6c0,0,0,0,0,0l132.1,0.3l49.4,0.1
	c51.8,0.1,96.6,17.1,133.2,50.6c35.4,32.6,52.5,69.9,52.5,113.9c-0.1,30.4-17.7,64.6-23.1,74.4l0,0c-2.8,5.1-3.4,11.2-1.7,16.8
	c1.7,5.6,5.7,10.3,10.9,12.9c17.8,8.9,33.7,18.8,42.7,26.6c20.3,18.7,35.6,39.4,45.7,61.6c10,22.2,15.1,46.6,15,72.6
	c-0.1,26.1-5.2,50.6-15.3,72.7c-5.3,11.7-12.2,22.9-20.4,33.7c-3.2,4.2-1.6,10.3,3.4,12.2l7.7,3c3.3,1.3,7,0.2,9.1-2.6
	c25.9-34.6,39.1-74.5,39.2-118.9c0.1-58.8-22.9-109.8-68.4-151.7l-0.2-0.2c-11.4-9.9-27.7-19.4-38.9-25.4c-3.8-2-5.2-6.6-3.3-10.4
	c8.2-16.5,21.4-47.6,21.4-77c0.1-50.3-20.1-94.5-60.1-131.4c-41.1-37.6-91.3-56.7-149.1-56.9l-49.4-0.1L1351,0c0,0-0.1,0-0.1,0
	c-7.9,0-15.6,3.1-21,8.5c-5.1,5.1-7.9,11.7-7.9,18.7l-1.1,611.8c0,7.1,2.8,13.9,8,19.1c5.5,5.6,13.4,8.8,21.5,8.8l246.7,0.5
	c0.2,0,0.5,0,0.7,0c36,0,69.3-6.7,99.6-20c4-1.7,5.8-6.3,4.1-10.3l-3.1-7.3c-1.7-4-6.4-5.9-10.4-4.1
	C1684.9,627.2,1681.6,628.5,1678.3,629.8z M1715.7,274.4C1715.7,274.4,1715.7,274.4,1715.7,274.4
	C1715.7,274.4,1715.7,274.4,1715.7,274.4z"/>
<path class="st0" d="M1750.8,580.2l24.1,9.3l78.8,30.4c5.8,2.2,5.7,10.5-0.1,12.6l-53.4,19.5c-5.6,2-9.9,6.5-11.7,12.1l-17.8,54
	c-1.9,5.9-10.2,6.2-12.6,0.5l-36.5-86.5l-9.3-22l-16.4-38.8c-2.3-5.5,3.1-11,8.6-8.9L1750.8,580.2z"/>
</svg>
